<svg xmlns="http://www.w3.org/2000/svg" viewBox="0 0 301.58 243.3"><defs><style>.cls-1{fill:#030303;}.cls-2{fill:#474747;}.cls-3{fill:#3f3f3f;}.cls-4{fill:#e9f5fe;}.cls-5{fill:#fda513;}.cls-6{fill:#fed05b;}.cls-7{fill:#9ae59c;}.cls-8{fill:#fec244;}.cls-9{fill:#6fd6a2;}.cls-10{fill:#c7eefd;}.cls-11{fill:#fc9801;}.cls-12{fill:#fba413;}.cls-13{fill:#fb9701;}.cls-14{fill:#f8a212;}</style></defs><title>1st</title><g id="Layer_2" data-name="Layer 2"><g id="Layer_1-2" data-name="Layer 1"><path d="M0,217V86.88c.54-7.26,4.69-12.43,9.71-17.19,4.27-4,8.29-8.37,12.54-12.44a8.58,8.58,0,0,0,2.83-6.76C25,40.58,25,30.67,25,20.76,25.08,8.29,33.28,0,45.68,0H255.87c12.43,0,20.63,8.25,20.66,20.73,0,9.91.07,19.82,0,29.73a8.58,8.58,0,0,0,2.81,6.77c4.26,4.07,8.25,8.41,12.55,12.43,5.38,5,9.52,10.64,9.72,18.38v1.18c-.59,1.11-.29,2.32-.29,3.47q0,62.28,0,124.56v3.41c.08,5.6-2.66,10-6.29,13.84-5.35,5.62-11.91,8.8-19.87,8.79q-84.21,0-168.41,0c-5.9,0-7.45-1-8.46-5.18.6-3.66,2.16-5.15,5.75-5.46,1.27-.11,2.55-.07,3.82-.07H269.73c1.58,0,3.14.08,4.7.13a9,9,0,0,0,2.78-.17c-11.6-6.8-23.15-13.38-34.66-20-17.42-10-34.87-20-52.25-30.12a81,81,0,0,0-39.73-10.26A81,81,0,0,0,110.42,183Q68.64,207.21,26.76,231.2a15.29,15.29,0,0,0-2.05,1.29,11.12,11.12,0,0,0,3.64.23c17.46,0,34.93,0,52.4,0,4.93,0,6.72,1.56,7.08,5.88-1.31,3.67-2.66,4.59-7.15,4.61q-21.48,0-43,0c-3.72,0-7.45.08-11.17,0-11.74-.3-20.06-5.84-25-16.49A16,16,0,0,1,.3,220.44c-.14-1.13.32-2.31-.3-3.4"/><path class="cls-1" d="M301,217.72q0-63,0-126c0-.85-.25-1.79.58-2.46v128.4q-.21.36-.54.09"/><path class="cls-2" d="M.52,220.09A3,3,0,0,1,0,220v-3a3.37,3.37,0,0,1,.52,3.05"/><path class="cls-3" d="M301,217.72l.54-.09v3h-.27l-.25.09Z"/><path class="cls-4" d="M114.78,78.16c-3.84-2-5.11-1.66-8,1.91C85.07,107.32,93.35,148,124,164.53l2.2,1.14-11.08,4.22c-1.09.41-1.61-.44-2.22-1Q74.41,131.38,35.88,93.92A3.54,3.54,0,0,1,34.7,91.1c0-13.45,0-26.9.06-40.35a9.87,9.87,0,0,1,9.71-9.82c.59,0,1.18,0,1.77,0H251.8c.88,0,1.76.07,2.64.1,3.81,2.84,4.42,7,4.44,11.27.09,14.37,0,28.74,0,43.11,0,1.95.14,3.92-.88,5.72L243.3,115.71c-2.74,2.71-2.91,3.76-1.16,7.17-.8,3.13-3.73,4.51-5.63,6.72-.95,1.1-1.84,2.62-3.75,2.27-2.64-1.78-4.84-1.25-7.07.93-12.06,11.82-24.22,23.53-36.25,35.37-1.54,1.51-2.71,2-4.78,1.05-2.82-1.31-5.83-2.2-8.86-3.31.15-.93,1-1,1.65-1.31,20.63-11.46,32.42-34.36,29.12-56.63C203,83.69,186.2,65.41,162.45,60.18a55.32,55.32,0,0,0-35.33,3.9c-2.85,1.28-4.05,3.24-3.31,6.31a1.71,1.71,0,0,1-.81,1.76c-2.87,1.83-5.19,4.41-8.22,6"/><path class="cls-5" d="M98.88,238.16H87.27c-.86-3.68-2-4.57-6-4.58q-26.65,0-53.29,0c-1.73,0-3.51.22-5.24-.47.33-1.15,1.31-1.27,2-1.67,28.52-16.45,57-33,85.61-49.27,20.69-11.79,42.56-13.78,65.3-6.91a6.13,6.13,0,0,1,1,.52c23.24,12.26,45.61,26,68.48,38.94q14.2,8,28.27,16.33c1,.57,2.31.84,2.18,2.41-1.27,0-2.54.12-3.81.12H105.17c-4.27,0-5.3.77-6.29,4.58"/><path class="cls-6" d="M106,174.44,78.79,190.09c-21,12.08-42,24.11-62.86,36.32-2.39,1.39-3.36.79-4.49-1.23A18.64,18.64,0,0,1,8.84,216V91.69a17.53,17.53,0,0,1,2.59-9.25l94.55,92"/><path class="cls-6" d="M232.76,131.87a98.29,98.29,0,0,0,9.38-9c3.24,1.93,4.64,1.77,7.48-1Q265.31,106.64,281,91.37c.76-.74,1.58-1.42,2.38-2.13,1.65.3,1.68,1.72,1.92,2.92a22.3,22.3,0,0,1,.17,4.4q0,57.16,0,114.32a58.43,58.43,0,0,1-.81,9.35c-.25,1.58-.39,3.4-2.48,3.87q-17.44-10-34.9-19.92-24.95-14.33-49.87-28.7c-.5-.29-1-.63-1.51-1,.38-1.11,1.34-1.66,2.07-2.37q16.95-16.53,33.93-33c2.63-2.56,2.76-4.06.87-7.24"/><path class="cls-7" d="M114.78,78.16c1.74-2.44,4.31-3.92,6.63-5.69.84-.64,1.86-1.08,2.4-2.08,2.28,2.9,3.72,3.23,7.33,1.63A45.5,45.5,0,0,1,162,69.25c8,3,13.66,8.85,18.39,15.51,9.59,13.55,12,28.62,7.65,44.56-3.26,12.06-10.34,21.65-20.47,29-1.36,1-3.06,1.27-4.37,2.32-16.57,5.62-37.57-1.13-49.3-15.84-14-17.58-14-41.66.12-59.46,1.9-2.39,2.46-4.57.78-7.17"/><path class="cls-4" d="M258,32c-1.27,0-2.55.07-3.82.07q-102.57,0-205.16,0c-4.82,0-9.6,0-14.2,2.88,0-5.87-.25-11.32.08-16.74C35.15,13.64,39.4,10,44,9.7c.68,0,1.37,0,2.06,0h206c.78,0,1.56.07,2.34.11,2.86,1.79,3.76,4.76,4.17,7.76.58,4.17.26,8.4.15,12.61A2.55,2.55,0,0,1,258,32"/><path class="cls-8" d="M282.17,224.1c2.39-3,2.21-6.71,2.22-10.08.15-40.22.1-80.43.1-120.65a6.44,6.44,0,0,0-1.14-4.13c2.14-2.26,4.29-4.52,6.57-6.94,2.41,3.56,2.83,7.09,2.83,10.75q0,59.73,0,119.46c0,1.08.06,2.16,0,3.24a30.25,30.25,0,0,1-.55,4.35c-1.85,7.87-3.49,8.51-10,4"/><path class="cls-9" d="M163.18,160.63c.19-.75.79-1,1.39-1.42,13.28-8.43,21.43-20.31,23.94-35.91,2.42-15-1.19-28.58-10.47-40.49A55.13,55.13,0,0,0,162,69.25c16.29,4,27.33,14.1,33.22,29.58,9.52,25-4.51,53.43-30,61.41a19.28,19.28,0,0,1-2,.39"/><path class="cls-10" d="M258,101.12c0-14.52-.13-29.05,0-43.57.05-5.84,0-11.54-3.59-16.53,8.18-.47,12.4,3.42,12.41,11.47,0,12.56,0,25.12,0,37.67a5.38,5.38,0,0,1-2,4.56c-2.36,2-4.58,4.26-6.86,6.4"/><path class="cls-11" d="M275.64,233.45c-4.13-3.13-8.79-5.4-13.25-8-12.42-7.24-24.88-14.39-37.34-21.56-12.29-7.07-24.64-14-36.87-21.21-3.85-2.25-8.06-3.92-11.47-6.91a49.25,49.25,0,0,1,13.16,5.6q44,25.24,88,50.62c.33.19.64.43,1.08.74-1,1-2.18.75-3.29.72"/><path class="cls-10" d="M258,32c0-3-.18-6.05,0-9.06a19.87,19.87,0,0,0-3.59-13.15c8.23-.52,12.4,3.4,12.41,11.64,0,4.36,0,8.72,0,13.4A25.68,25.68,0,0,0,258,32"/><path class="cls-12" d="M25.77,67.17v16.9c-2.78-2.72-5.24-5.13-7.72-7.53-.9-.88-.13-1.38.4-1.92l7.32-7.45"/><path class="cls-13" d="M275.78,74.5V67.25c2.81,2.82,5.18,5.24,7.61,7.62.77.76.58,1.31-.13,1.93-1,.83-1.89,1.69-2.83,2.54-2.06-1.12-3-3.29-4.65-4.84"/><path class="cls-14" d="M275.78,74.5c2.45.75,3.34,3,4.65,4.84l-4.57,4.23a59.69,59.69,0,0,1-.08-9.07"/><path d="M151.32,150c-2.42,0-4.06-1.15-4.43-3.25-.31-1.78-1.07-2.07-2.62-2.28a20.35,20.35,0,0,1-8.37-3.4c-2.74-1.77-3.5-4.15-2.1-6.44s4-2.78,6.66-1.1c4.84,3,10,3.29,15.26,1.71,4-1.2,6.11-3.94,6.09-7.36,0-3.22-2.13-6-5.85-7.32-2.67-1-5.42-1.65-8.14-2.46a28.74,28.74,0,0,1-10.21-5c-5.45-4.41-7.71-10.07-6.21-16.95,1.42-6.53,5.67-10.57,12.07-12.3,1.83-.5,3.26-.83,3.66-3.23.33-2,2.24-2.84,4.35-2.68s3.7,1.46,3.81,3.44c.11,2.15,1.26,2.67,2.88,3.28a22.46,22.46,0,0,1,7.2,4.48c2.28,2.11,2.59,4.78.81,6.73s-4.15,2-6.54,0c-4-3.34-8.39-5-13.6-3.61-3.18.84-5.43,2.64-6.08,6a7.66,7.66,0,0,0,3,7.79,22,22,0,0,0,7.9,3.77c2.52.77,5.08,1.44,7.58,2.29,7.59,2.58,12.28,8.72,12.2,15.88-.07,7.33-4.69,13.33-12.33,15.76-1.69.53-2.83.92-3.08,3.08a3.74,3.74,0,0,1-3.9,3.18"/></g></g></svg>