<svg xmlns="http://www.w3.org/2000/svg" viewBox="0 0 255.92 243.78"><defs><style>.cls-1{fill:#116ffe;}.cls-2{fill:#93c1fe;}.cls-3{fill:#1370fe;}.cls-4{fill:#126ffe;}.cls-5{fill:#d6e8fe;}</style></defs><title>2nd</title><g id="Layer_2" data-name="Layer 2"><g id="Layer_1-2" data-name="Layer 1"><path class="cls-1" d="M243.89,113.06q2.87-4.2,5.72-8.39c.43-.63.84-1.28,1.3-1.89,1-1.34,2.29-1.84,3.75-.87a2.47,2.47,0,0,1,.66,3.78c-3.94,5.85-7.87,11.71-11.92,17.48-1.42,2-3.31,1.93-4.76-.17-3.92-5.66-7.75-11.38-11.6-17.08-1-1.46-1.07-3,.52-4s2.91-.43,3.91,1c2,3,4.07,6,6.29,8.9a112.43,112.43,0,0,0-23.95-61.4c-19-24.16-43.71-39.23-74.13-43.64C100.75,1.19,66.89,12.49,38.93,40.28a110.56,110.56,0,0,0-32.19,64c-5,34.84,3.71,66.13,26.5,93.09C51.79,219.3,75.5,232.88,103.9,237c40.18,5.8,74.6-6.41,103-35.39A89.65,89.65,0,0,0,215,192c1.2-1.64,2.62-2.7,4.45-1.25s1,3-.18,4.46c-18.76,24.32-43.13,39.89-73.21,46.06-63.69,13-126.69-26.74-142.39-89.67A122,122,0,0,1,89.41,4.49c67.27-18.87,137.33,23.65,151.68,92.06,1.13,5.38,1.94,10.83,2.8,16.51"/><path class="cls-1" d="M220.79,122.09c-.14,54.44-44.6,98.81-98.94,98.74S22.71,176,23,121.74c.26-54.62,44.87-99,99.23-98.74s98.72,44.75,98.58,99.09"/><path class="cls-2" d="M215.31,122c.4,51-41.81,93.51-93.56,93.44-51.22-.07-93.51-42.27-93.4-93.73s42.54-93.36,93.56-93.33c51.69,0,93.87,42.59,93.4,93.62"/><path class="cls-1" d="M119.26,77.81q0-12.12,0-24.23a17.32,17.32,0,0,1,0-2,2.42,2.42,0,0,1,2.61-2.27,2.3,2.3,0,0,1,2.5,2.35c.09,2.12,0,4.25,0,6.38,0,14.88,0,29.75,0,44.63,0,1.92.5,2.8,2.42,3.4,8,2.48,12.58,9.53,11.81,18-.66,7.27-7.29,13.83-14.81,14.69A16.56,16.56,0,0,1,106,127c-.63-2-1.51-2.57-3.55-2.56-13.6.1-27.21,0-40.81,0a13.46,13.46,0,0,1-2.29-.07,2.56,2.56,0,0,1,0-5,13.39,13.39,0,0,1,2.29-.07c13.69,0,27.37,0,41.06,0,1.7,0,2.64-.23,3.19-2.21A15.29,15.29,0,0,1,117.07,106c2-.55,2.24-1.47,2.22-3.18-.06-8.34,0-16.67,0-25"/><path class="cls-3" d="M67.73,65.16a2.54,2.54,0,0,1-1.65,2.37c-2.17.88-3.22-.91-4.47-2.09s-2-2.19-1-3.8a2.55,2.55,0,0,1,2-1.42c1.75-.17,5.21,3.16,5.15,4.94"/><path class="cls-3" d="M180.93,60.21A2.67,2.67,0,0,1,183.27,64a8.76,8.76,0,0,1-3.64,3.47,2.62,2.62,0,0,1-3.61-2.6c.11-1.58,3.37-4.7,4.91-4.7"/><path class="cls-3" d="M67.73,178.78c0,1.67-3.35,4.94-5,4.82a2.63,2.63,0,0,1-2.53-2.71c-.12-1.65,3.38-4.91,5-4.84a2.85,2.85,0,0,1,2.52,2.73"/><path class="cls-3" d="M178.44,176.05c1.88,0,5.21,3.29,5.1,4.92A2.58,2.58,0,0,1,181,183.6c-1.69.11-5.09-3.26-4.92-4.9a2.67,2.67,0,0,1,2.4-2.65"/><path class="cls-4" d="M124.47,40.14c-.07,1,.18,2-.48,3a2.34,2.34,0,0,1-2.85,1c-2-.77-1.89-2.52-1.9-4.25s.05-3.29,1.91-4a2.32,2.32,0,0,1,2.85,1c.69,1,.38,2.12.47,3.2"/><path class="cls-4" d="M124.43,203.83a17.6,17.6,0,0,1,0,1.78,2.41,2.41,0,0,1-2.42,2.44,2.52,2.52,0,0,1-2.7-2.47,21.86,21.86,0,0,1,0-3c0-1.8,1-3,2.75-2.94s2.45,1.28,2.43,3v1.26Z"/><path class="cls-4" d="M40,124.46a13.47,13.47,0,0,1-2,0A2.43,2.43,0,0,1,35.8,122,2.4,2.4,0,0,1,38,119.39a20.75,20.75,0,0,1,3.78,0,2.38,2.38,0,0,1,2.39,2.45,2.45,2.45,0,0,1-2.45,2.66,14.92,14.92,0,0,1-1.77,0v0"/><path class="cls-4" d="M203.71,124.58a9,9,0,0,1-2.45-.28,2.35,2.35,0,0,1-1.61-2.8c.7-2.77,3-2.09,5-2.18,1.7-.08,3.06.42,3.36,2.28a2.31,2.31,0,0,1-1.73,2.72,12.15,12.15,0,0,1-2.54.26"/><path class="cls-5" d="M121.89,110.52A11.55,11.55,0,0,1,133.48,122a11.81,11.81,0,0,1-11.57,11.57A11.57,11.57,0,0,1,110.43,122a11.25,11.25,0,0,1,11.46-11.44"/></g></g></svg>