<svg xmlns="http://www.w3.org/2000/svg" viewBox="0 0 276.38 242.82"><defs><style>.cls-1{fill:#365e7d;}.cls-2{fill:#e7824d;}.cls-3{fill:#407092;}.cls-4{fill:#365e7c;}.cls-5{fill:#2b4d66;}.cls-6{fill:#fee179;}.cls-7{fill:#f7ce58;}.cls-8{fill:#d46d40;}</style></defs><title>3rd</title><g id="Layer_2" data-name="Layer 2"><g id="Layer_1-2" data-name="Layer 1"><path d="M155.35,6c1.51-3.16,2.69-3.74,5.93-2.9a72.79,72.79,0,0,1,19.27,8.07c5.11,3.05,7.67,7.3,7.5,13.3-.14,5.13.09,10.26-.08,15.38-.08,2.23.53,2.83,2.78,2.82,21.05-.09,42.09-.06,63.14,0,13.86,0,22.46,8.64,22.47,22.58,0,18,0,36,0,53.95,0,6-1.75,11.34-6,15.63-1.08,1.09-1,2.22-1,3.44q0,41.42,0,82.83c0,10.33-5.84,18.27-15.28,21a22.93,22.93,0,0,1-6.38.85H205.63c-3.58,0-4.67-.88-5.43-4.24-.18-2.42.86-3.91,3.16-4.44a16.29,16.29,0,0,1,3.76-.21H246a20,20,0,0,0,5.61-.61,11.68,11.68,0,0,0,8.75-10.46,36.69,36.69,0,0,0,.09-3.78V151.38c0-1.34,0-2.69.07-4-.1-1.24.24-2.49-.18-3.89-3.07,1.64-5.92,3.48-8.93,5-19.19,10-39.74,15.57-61,18.94-9.14,1.45-18.34,2.29-27.55,3.08-3.54.31-3.52.49-4.25,4a11.78,11.78,0,0,0-.24,1.32c-1.33,5.78-4.27,10.48-9.47,13.5-12.68,7.4-27.42.85-30.85-13.65-1.08-5.11-1.08-5.1-6.84-5.45A262.77,262.77,0,0,1,63.68,163a65.32,65.32,0,0,1-6.46-1.86c-3.09-1.12-4.11-2.91-3.7-6.21,1.8-2.94,3.5-3.75,6.71-2.86A256.13,256.13,0,0,0,102,159.84c4.37.46,8.76.63,13.12,1.14,1.58.19,2.36-.49,2.34-2.11,0-1,0-2,0-3a20.51,20.51,0,0,1,.36-5.36,10.28,10.28,0,0,1,9.73-8.26q10.64-.34,21.27,0a10.24,10.24,0,0,1,9.68,8,17.77,17.77,0,0,1,.43,5.34c0,5.26,0,5.33,5.17,5,25.37-1.59,50.11-6.12,73.58-16.25a105.57,105.57,0,0,0,24.87-14.45,12.2,12.2,0,0,0,4.89-9.74q0-27.81,0-55.6c0-5.07-1.8-9.11-6.41-11.61a10.79,10.79,0,0,0-4.89-1.37c-1.08,0-2.16,0-3.24,0H21.33C14.08,51.7,9.18,56.48,9,63.78,8.86,69.09,9,74.4,9,79.7c0,13.4,0,26.81,0,40.2a11.82,11.82,0,0,0,4.82,10c7.6,6,16.1,10.49,24.86,14.5,1.06.48,2.15.92,3.21,1.4,3.18,1.46,3.88,2.8,3.37,6.42-1.78,2.95-4,3.61-7.8,2a136.52,136.52,0,0,1-15.45-7.48c-1.93-1.11-3.81-2.31-6-3.56a30.66,30.66,0,0,0,0,4.39c.18,22.75,0,45.5.08,68.24,0,1.89,0,3.78,0,5.66.2,6.76,4.54,11.49,11.25,12.27a39.09,39.09,0,0,0,4.59.12H184.22a24.93,24.93,0,0,1,4.57.17c2.49.47,3.6,2,3.41,4.5-.75,3.29-1.84,4.24-5.15,4.24q-79.41,0-158.82,0C16,242.76,7,233.65,7,221.41q-.07-41.52,0-83a5.2,5.2,0,0,0-1.6-4.27c-2.89-2.69-3.93-6.47-5.4-10V59.88c.13-.12.32-.22.37-.36,3.46-11.77,10.36-17,22.61-17,20.86,0,41.72,0,62.58,0,2.21,0,2.91-.49,2.83-2.78-.19-5.3,0-10.61-.08-15.91a13.47,13.47,0,0,1,6.78-12.34C105.48,5,117,1.79,129.05.52a83.91,83.91,0,0,1,14-.38c2.28.15,4,1,4.54,3.44.43,3.88-.7,5.26-4.73,5.22a92.54,92.54,0,0,0-28.7,3.76,66.82,66.82,0,0,0-13.73,6.14,5.74,5.74,0,0,0-3.06,5.54c.07,4.31,0,8.62,0,12.92,0,4.59,1.65,5.77,6.22,4.62A1.64,1.64,0,0,0,105,40.1c.08-1,0-2,0-3,0-2.51,0-5,0-7.54-.07-3.18,1.49-5.25,4.24-6.59A60.43,60.43,0,0,1,127,17.77a71,71,0,0,1,38.06,4.34c5.31,2.17,6.26,3.64,6.27,9.32,0,1.89,0,3.77,0,5.65,0,4.79,1.25,5.72,6.07,4.72a1.62,1.62,0,0,0,1.52-1.54c.09-1,0-1.95.07-2.92,0-4.4-.07-8.81,0-13.21a5.77,5.77,0,0,0-3.14-5.49A70.27,70.27,0,0,0,160.59,12a10.64,10.64,0,0,1-4.15-1.84C155.14,9,154.26,7.73,155.35,6"/><path class="cls-1" d="M118.69,175.92c1.88,7.16,6,12.29,13.17,14.73a19.73,19.73,0,0,0,25-12.17c.3-.84.54-1.7.81-2.56.54-1.22,1.67-1.21,2.75-1.26a266.85,266.85,0,0,0,30.51-3.28c15.65-2.59,31-6.38,45.66-12.53a137.71,137.71,0,0,0,21-10.88c1.05-.68,2-2,3.58-1.18,0,25.24.1,50.49,0,75.74,0,6.89-5.91,12.14-13.21,12.16-14.19,0-28.39.06-42.59,0-2.88,0-4.63,1-5.21,3.89h-8c-1.11-3.38-1.8-3.85-5.75-3.85-52.23,0-104.46-.09-156.69.08-8.51,0-14.9-5.73-14.78-14.65.34-24.45.16-48.9.18-73.35,1.09-.72,1.9.08,2.68.58,21.27,13.77,45,20.41,69.72,24.34a228.62,228.62,0,0,0,28.38,2.95c1.07,0,2.2,0,2.75,1.26"/><path class="cls-2" d="M155.35,6c-.11,2.77,1.28,4.24,3.91,4.94a63.72,63.72,0,0,1,17.48,7.41,6,6,0,0,1,3.18,5.75c-.14,4.38-.12,8.77-.17,13.16a11,11,0,0,1-9.15,0c0-2.6-.19-5.2-.1-7.8a5.42,5.42,0,0,0-3.59-5.67,70.61,70.61,0,0,0-40-5.17,65.39,65.39,0,0,0-17.47,5.17,5.42,5.42,0,0,0-3.59,5.67c.1,2.6,0,5.2-.09,7.8a11,11,0,0,1-9.15,0c0-4.76-.09-9.51-.12-14.27,0-2.27,1.41-3.56,3.17-4.65,9.28-5.73,19.46-8.6,30.22-9.7a92.1,92.1,0,0,1,12.65-.37c3.68.14,4.75-.92,5.06-4.65a2,2,0,0,0,1.79,1.5c2,.18,4,.57,6,.88"/><path class="cls-3" d="M8.2,120.88c0-19.34-.13-38.68,0-58A12.5,12.5,0,0,1,20.52,50.68h233.7c7.4,0,12.35,3.72,13.77,10.33a8.41,8.41,0,0,1,.24,1.87q0,29-.07,58a7.38,7.38,0,0,1-2.74,3.87c-10.09,7.89-21.38,13.54-33.31,18-18.82,7.07-38.34,10.89-58.28,12.91-4.11.41-8.21.87-12.34,1-1.15,0-2.36.15-3.33-.73-.24-1.86,0-3.75-.46-5.61a9.48,9.48,0,0,0-8.9-7.31c-7.08-.11-14.17-.14-21.25,0-5.08.1-8.9,4.14-9.25,9.42-.07,1.16-.07,2.32-.1,3.49-1.89,1.29-4,.81-6,.65-9-.73-17.87-1.75-26.75-3.18a204.72,204.72,0,0,1-46.69-12.83,118.39,118.39,0,0,1-27.36-15.52,7.87,7.87,0,0,1-3.17-4.19"/><path class="cls-4" d="M8.2,120.88c3.48,4.36,8.23,7.11,12.87,9.94,17.67,10.79,37.15,16.75,57.27,20.64a233.11,233.11,0,0,0,30.75,4c3,.17,6.07.41,9.11.44.25,5.93.26,5.87-5.73,5.49a243.71,243.71,0,0,1-52.14-8.66c-2.67-.76-4.76-.31-6.22,2.16-3.59.7-6.49-.89-9.3-2.77.46-3-.77-4.79-3.67-6a114.36,114.36,0,0,1-27.8-15.7,12.49,12.49,0,0,1-5.14-9.62"/><path class="cls-5" d="M44.81,152.17c3.17.68,6,2.46,9.3,2.77-.24,3.45.64,4.78,3.9,5.69a240.41,240.41,0,0,0,41.37,7.77c5.71.55,11.41,1.08,17.12,1.54,1.21.09,1.78.41,1.78,1.72s.26,2.84.41,4.26c-3.08-1.22-6.39-.69-9.54-.94a267.29,267.29,0,0,1-47.71-8c-15.94-4.23-31-10.44-44.85-19.54a9.72,9.72,0,0,0-1.43-.64v-4.85c2.6,1.54,4.87,2.92,7.17,4.23a138.14,138.14,0,0,0,15.94,7.67c2.58,1.07,4.88.92,6.54-1.67"/><path class="cls-4" d="M158.16,156c8.06,0,16-1.07,24-2a236.45,236.45,0,0,0,33.6-6.6c16.71-4.54,32.54-11.09,46.73-21.18,2.09-1.48,4.31-2.94,5.68-5.25a12.83,12.83,0,0,1-5.37,9.79c-13.81,10.67-29.6,17.19-46.18,22a232.7,232.7,0,0,1-45.74,8.2c-3.22.27-6.44.49-9.64.92-2.37.32-3.6-.22-3.17-2.88a22.41,22.41,0,0,0,.1-3"/><path class="cls-6" d="M126.73,173.26c-.71-6.81-.18-13.63-.26-20.45,0-1.31,1-1.73,2.26-1.73q9.44,0,18.89,0c1.26,0,2.27.42,2.26,1.73-.08,6.81.46,13.64-.26,20.44-5.09,7.06-17.74,7.07-22.89,0"/><path class="cls-5" d="M261.2,146.79c-4.31,2.17-8.27,4.93-12.55,7.18a161,161,0,0,1-27.3,11.15,220.77,220.77,0,0,1-32.09,7.31c-7.14,1.09-14.31,1.95-21.52,2.51-3.35.25-6.79,0-10.07,1,.68-5.95.68-6,6.73-6.4a259.37,259.37,0,0,0,37.26-4.88c20.62-4.21,40.41-10.63,58.31-22a8.53,8.53,0,0,1,1.23-.48Z"/><path class="cls-7" d="M126.73,173.26c2.86,1.89,5.55,3.93,9.23,4.39a16.26,16.26,0,0,0,12.16-3.32c.49-.37,1-.72,1.5-1.08a11.5,11.5,0,0,1-22.89,0"/><path class="cls-8" d="M96.61,37.21h9.15c.38,5.37.38,5.37-4.84,5.37-4.74,0-4.74,0-4.31-5.36"/><path class="cls-8" d="M170.6,37.2h9.15c.43,5.36.43,5.36-4.85,5.36-4.69,0-4.69,0-4.3-5.37"/></g></g></svg>