<svg xmlns="http://www.w3.org/2000/svg" viewBox="0 0 181.49 243.78"><defs><style>.cls-1{fill:#b87f7f;}.cls-2{fill:#ad6c6c;}.cls-3{fill:#fdd302;}.cls-4{fill:#b8807f;}.cls-5{fill:#eeecee;}.cls-6{fill:#d6cfd5;}.cls-7{fill:#f9c500;}</style></defs><title>4th</title><g id="Layer_2" data-name="Layer 2"><g id="Layer_1-2" data-name="Layer 1"><path class="cls-1" d="M12.64,30.08C5.24,28.55.42,23.31,0,15.76A14.9,14.9,0,0,1,10.33.82C10.82.65,11.46.63,11.7,0H154.06c7.32,1.38,11.72,5.56,13.08,12.42a15.74,15.74,0,0,1-9.75,17.34,18.25,18.25,0,0,1-2.72.85,26,26,0,0,1-4,.16c-41.19,0-82.37.07-123.56-.08-4.79,0-9.62-.37-14.43-.61"/><path class="cls-2" d="M155.49,30a17.55,17.55,0,0,0,8.38-5.89A15.11,15.11,0,0,0,156.46.86c-.8-.27-1.77-.13-2.4-.86h14.76c2.36.86,4.78,1.56,6.79,3.19a15.17,15.17,0,0,1,5.12,16.61,15.4,15.4,0,0,1-14.29,10.62c-2.69.09-5.38.06-8.07.09a2.45,2.45,0,0,1-2.88-.5"/><path class="cls-3" d="M152.52,76.76c0,.34.06.7-.32.91-3.64.23-7.29.16-10.93,0-2.24-.07-3.41.82-4.41,2.76a66.71,66.71,0,0,1-36,32.62,15.7,15.7,0,0,1-3.44.9c-8.8,1.25-14,8.16-12.54,16.94.82,5.09,1.61,10.18,2.52,15.25,1.52,8.47,5.18,12.28,13.66,13.37a46.64,46.64,0,0,0,13.5-.14,78.13,78.13,0,0,1,8.79-.13,2.44,2.44,0,0,1,2.15.78c-.14,1.15-1.11,1-1.81,1a24.08,24.08,0,0,1-7.47-.57c10.6,1.76,17.92,7.62,23.31,16.1a33.14,33.14,0,0,1,4.76,14.76c.64,6.4.31,12.81.4,19.21,0,1.14.23,2.43-1.08,3.17a9.81,9.81,0,0,1-3.53.34q-56.52,0-113,0c-1.39,0-2.88.31-4.09-.76.22-8.88-.57-17.79.64-26.64C25.47,171.54,42,159.4,56,159.79a52,52,0,0,0,11.62-.49C73,158.24,77,155.2,78.36,150a97.63,97.63,0,0,0,3.58-22c.24-6.45-3.6-11.41-9.75-13.35a17,17,0,0,0-3.82-1.22,67.72,67.72,0,0,1-37.89-33C29.87,79.27,29,78.17,29,76.75c1.23-1.25,2.82-.85,4.28-.85q42.26,0,84.49,0c6.83,0,13.65-.11,20.47.06,3.75-.11,7.5-.06,11.25,0,1.07,0,2.22-.14,3,.85"/><path class="cls-4" d="M23,213.31c.55,0,1.1.07,1.66.07H144.05a54,54,0,0,1,10.93-.14,16,16,0,0,1,11.74,11c3,8.81-4.2,19.4-12.62,19.5-1.27,0-2.54.07-3.81.07H15.85c-8,0-14.54-5.31-15.6-12.56-1.4-9.63,5.34-17.59,15.1-17.81,2.54-.06,5.08-.06,7.62-.09"/><path class="cls-5" d="M138.32,76.62c-.7.07-1.41.19-2.11.19h-106c-.39,0-.79,0-1.18-.07-2.19-3.17-2.88-6.91-3.95-10.49C22.47,57.66,23.19,48.8,23.12,40c.89-.9,2.05-.74,3.14-.74,35.87,0,71.74,0,107.6-.07a10.68,10.68,0,0,1,10.59,10.68,71.48,71.48,0,0,1-4.12,23.31,6.54,6.54,0,0,1-2,3.44"/><path class="cls-6" d="M138.32,76.62A98.28,98.28,0,0,0,142.89,61a58.42,58.42,0,0,0,.64-13.72c-.16-3.35-4.51-7-8.08-7.23-.32,0-.64,0-.95,0H23.12c-.82-1.66-.4-3.44-.42-5.16-.06-4.33,0-4.27-4.46-4.36-1.86,0-3.79.47-5.6-.4l108.38,0,34.47,0,2.88.5c0,8,.27,16-.11,24a52.51,52.51,0,0,1-5.74,22.24l-14.2-.14"/><path class="cls-5" d="M68.37,113.39c9.26,0,15.78,8.28,14.14,17.9q-1.33,7.83-2.67,15.67c-1.42,8.43-7,13.19-15.52,13.37-5,.1-10.16-.47-15.13.86-12.9,3.47-21.33,11.55-25.14,24.4a11.11,11.11,0,0,1-.44,1.08c.15-6.67,2.21-12.9,4.74-18.95a64.8,64.8,0,0,1,13.88-20.79,67.3,67.3,0,0,1,25.31-16.28c6.36-2.25,8.49-8.73,4.74-14.34-1-1.49-2.52-2.06-3.91-2.92"/><path class="cls-7" d="M114.07,160.07a57.18,57.18,0,0,1-13.65.06A14.45,14.45,0,0,1,90.33,155c-2.23-2.62-3.08-5.74-3.6-9.09-.88-5.75-2.08-11.45-2.66-17.25A14.36,14.36,0,0,1,96,113.6c4.49-.62,8.46-2.5,12.35-4.57a63.57,63.57,0,0,0,16.22-12.2,63.26,63.26,0,0,0,12.28-17.6,3.14,3.14,0,0,1,3.45-2.14c3.25.14,6.5,0,9.75,0,.76,0,1.62-.24,2.2.53a63.57,63.57,0,0,1-18.66,24.25,61,61,0,0,1-20.89,11.51c-2.13,1-4.54,1.23-6.56,2.53-5.46,3.49-7.64,9-6.34,16,.81,5.08,1.64,10.16,2.55,15.22,1.06,5.85,4.2,10,10,11.81a2.64,2.64,0,0,1,1.77,1.09"/><path class="cls-7" d="M155.48,213.75c-3.8-.34-7.64.39-11.43-.38,0-5.63,0-11.26,0-16.88-.09-11.41-3.9-21.19-12.83-28.61a33.06,33.06,0,0,0-12.8-6.46,6.13,6.13,0,0,1-2.39-1h9.61c1.89-1.14,3.8-.35,5.7,0a23.31,23.31,0,0,1,3.86,1,35.59,35.59,0,0,1,19.74,16.45,27.77,27.77,0,0,1,2.93,8.89c1.25,8.83.39,17.72.68,26.57-.86,1.13-2,.93-3.07.5"/><path class="cls-6" d="M157.87,186.68c-2-6.94-5.37-13.06-10.88-17.91a42.72,42.72,0,0,0-11.51-6.83,7.41,7.41,0,0,1-2-2.33A66.38,66.38,0,0,0,102,132.41a4.19,4.19,0,0,0-2.75-.46C96.68,122.8,103,114,112.65,113.43c-3.2,1.87-5.27,4.45-5.27,8.35a8.85,8.85,0,0,0,5.89,8.63,67.65,67.65,0,0,1,43.63,49.27c.49,2.3,1.21,4.59,1,7"/><path class="cls-2" d="M155.48,213.75l3.07-.5c3.62.34,7.27-.26,10.88.52,7.33,1.59,12.71,8.61,12,15.75-.82,8.26-7,14.2-15,14.25-4.11,0-8.22-.05-12.33-.07a16.67,16.67,0,0,0,10.24-7,15,15,0,0,0-7.42-22.19c-.5-.18-1.13-.16-1.44-.73"/><path class="cls-5" d="M99.24,132c.22-1.2.91-1,1.75-.64a72.92,72.92,0,0,1,20.18,12.57,68.46,68.46,0,0,1,14.31,18.06c-3.26-.67-6.44-1.78-9.84-1.56-3.84-.64-7.72-.13-11.57-.31-7.26-1.56-11.43-6-12.5-13.36-.71-4.93-1.55-9.84-2.33-14.76"/></g></g></svg>