<svg xmlns="http://www.w3.org/2000/svg" viewBox="0 0 219.67 249.07"><defs><style>.cls-1{fill:#4383eb;}.cls-2{fill:#fdcb5d;}.cls-3{fill:#3f7ce1;}.cls-4{fill:#2666cd;}.cls-5{fill:#fefefe;}.cls-6{fill:#3879e2;}</style></defs><title>5th</title><g id="Layer_2" data-name="Layer 2"><g id="Layer_1-2" data-name="Layer 1"><path class="cls-1" d="M69.71,211.9a95.71,95.71,0,0,1-27.17-15.42C20.65,179.09,6.63,156.85,1.82,129.16c-5-28.59.14-55.35,16.28-79.51,17.47-26.16,41.79-42.5,73-47.9C119.45-3.16,146,2.24,170,18.17c25.19,16.7,41.28,40.08,47.32,69.75,5.92,29.11.69,56.5-15.42,81.49a108.78,108.78,0,0,1-46.95,40.51,6.67,6.67,0,0,1-1.3.31,1.33,1.33,0,0,1-.28-1c1.6-4.89,1.35-10,1.8-15a4.81,4.81,0,0,1,2.33-2.21,105,105,0,0,0,18.35-13.75,92.16,92.16,0,0,0,14.06-17.41,91.69,91.69,0,0,0,14.7-44.73,93.39,93.39,0,0,0-8-44.76,99.77,99.77,0,0,0-19-28.19,92.87,92.87,0,0,0-23-17.07A89.08,89.08,0,0,0,119,15.23C102.5,13.88,86.46,16,71.21,23A95.75,95.75,0,0,0,41.41,44C27.3,58.77,18.49,76.26,15.7,96.64c-3.21,23.35,1.67,45,14.32,64.77A94,94,0,0,0,58.71,189.9c3.52,2.27,7.29,4.09,10.81,6.35.71,2.41.37,4.92.66,7.37a18.41,18.41,0,0,0-.11,5.69c.08.89.36,1.81-.36,2.59"/><path class="cls-2" d="M155.68,193.82c.21,5.58,0,11.11-2,16.41-5.7,13.67-16.82,20-30.71,22.4-2.46.42-3.23,1.27-3.05,3.66a69.93,69.93,0,0,1,0,7.93c-.13,3.25-1.27,4.5-4.45,4.73a43.26,43.26,0,0,1-6.83,0c-2.88-.26-3.87-1.53-3.89-4.54s-.09-6,0-9c.07-1.74-.35-2.42-2.28-2.78-10.8-2-20.23-6.58-27-15.67-.92-1.24-1.71-2.58-2.56-3.87-2.69-2.53-3.34-5.8-3.33-9.3a23.68,23.68,0,0,1-.34-7.65c.23-2.54,2.14-3.11,4.15-3.45a36.56,36.56,0,0,1,4.32-.08,6.87,6.87,0,0,1,6,2.65c1.33,2.19,1,4.8,1.88,7.12,2.57,7.64,8.44,11.71,15.66,14a36.84,36.84,0,0,0,26.21-.9c6.1-2.55,10.52-6.82,12-13.56.08-3.63.62-7.31-1.73-10.56a20.35,20.35,0,0,0-8.84-6.63c-6.13-2.66-12.63-4.11-19.09-5.66s-12.92-3.21-19-6c-7.38-3.37-13.65-8-17.17-15.64a32,32,0,0,1-2-6.24,32.4,32.4,0,0,1,15.87-33.55c4.29-2.41,8.71-4.61,13.63-5.43,2.15-.36,2.93-1.47,2.78-3.55-.09-1.26-.06-2.54,0-3.82,0-2.27-.09-4.54,0-6.81.09-2.74,1.25-4.7,4-5.5a35.3,35.3,0,0,1,6.5-.19c4,.06,5.19,1.11,6.07,5.1a71.42,71.42,0,0,0,0,11.7c.1,2,1.46,2.6,3.23,3,8.7,2,16.53,5.66,22.55,12.51,4.78,5.43,7.8,11.61,7.86,19a6,6,0,0,1-1,3.9,5.16,5.16,0,0,1-3.94,1.57c-1,0-2,0-3,0-6.55,0-7.09-.44-8.63-6.86a16.83,16.83,0,0,0-5.58-8.88c-8.87-7.79-26.48-8.21-35.32-2.36-5.9,3.91-9.47,9-8.66,16.44.46,3.61,2.48,6.08,5.43,8.1C98.38,159,104,160.52,109.61,162s11.34,2.71,16.93,4.39c7,2.12,13.75,4.78,19.57,9.38a28.7,28.7,0,0,1,8.37,11c.61,2.32,2,4.5,1.2,7.06"/><path class="cls-3" d="M69.61,203.74a43.16,43.16,0,0,0,3.33,9.3,5.65,5.65,0,0,1-3.23-1.14c-.4-2.71-1.15-5.42-.1-8.16"/><path class="cls-4" d="M155.68,193.82l-1.77-7c2.14-2.29,5.13-3.4,7.48-5.42,1.8-1.54,3.77-2.87,5.62-4.37,2.44-2,2.45-2,.16-4.35a52.19,52.19,0,0,1-3.79-3.94,4.12,4.12,0,0,1-1-3.81,3.5,3.5,0,0,1,5.64-1.92,45,45,0,0,1,4.76,4.51c1.9,1.79,2.34,1.79,3.94-.1a90.08,90.08,0,0,0,20.83-47.14c.11-.82.06-1.64.11-2.46.29-4.3.3-4.3-4.17-4.31a40.05,40.05,0,0,1-4.65-.08,3.82,3.82,0,0,1-3.53-3.55,3.77,3.77,0,0,1,3.6-3.74,67.86,67.86,0,0,1,6.84-.06c1.79,0,2.33-.64,2.18-2.49a88.3,88.3,0,0,0-21.16-51.22c-1.79-2.12-2.06-2.14-4.06-.23-1.45,1.38-2.75,2.93-4.34,4.17-1.89,1.48-3.7,1.46-5.17,0s-1.25-3.33-.14-5a26.65,26.65,0,0,1,4.32-4.56c1.52-1.41,1.74-2.35-.06-3.88a87.86,87.86,0,0,0-47.66-20.82c-6-.7-6-.69-6,5.21,0,.91,0,1.82,0,2.73-.22,2.41-1.59,3.91-3.67,4.06s-3.51-1.06-4-3.6a26.41,26.41,0,0,1-.21-6.28c.06-2.09-.86-2.73-2.83-2.54A90.81,90.81,0,0,0,53.43,41.81c-.56.46-1,1-1.59,1.5-1.19,1.08-1.21,2.11-.05,3.25,1.37,1.34,2.77,2.66,4,4.09,1.73,2,1.83,4.11.34,5.63s-3.47,1.58-5.58-.23a50.31,50.31,0,0,1-4.09-4c-1.23-1.32-2.27-1.24-3.41.06a83.61,83.61,0,0,0-7.89,10.49A90,90,0,0,0,21.83,100.7c0,.18,0,.37-.07.55-.43,4.61-.22,4.85,4.33,4.86a31.24,31.24,0,0,1,4.64.11,3.62,3.62,0,0,1-.08,7.23,40,40,0,0,1-6.29.08c-2.05-.08-2.79.81-2.67,2.78a82.78,82.78,0,0,0,4.45,21.91,88.27,88.27,0,0,0,15.18,27.37l.51.65c2.75,3.28,2.76,3.27,5.79.26a29.34,29.34,0,0,1,3.58-3.38c1.81-1.28,3.52-1.17,4.95.25a3.72,3.72,0,0,1,.22,5,37.47,37.47,0,0,1-3.6,3.75c-2.53,2.58-2.59,3,.25,5.34a79.24,79.24,0,0,0,15.18,10.2c2.6,1.32,5.19,2.68,7.87,3.85.79.34,1.81.53,1.85,1.72-3.13.23-6.61-.65-8.65,2.87-4-.58-7.1-3.21-10.37-5.27-19.16-12.07-32.37-29-39.86-50.29a94.68,94.68,0,0,1-4.7-24A92.45,92.45,0,0,1,25.7,64.13a95.89,95.89,0,0,1,73-49.34,95,95,0,0,1,57.61,11.36A89.69,89.69,0,0,1,177.2,41.73C190.7,55.56,199.84,71.9,203.7,91a91.69,91.69,0,0,1,1.7,25,96.64,96.64,0,0,1-19.23,51.59c-8.25,11.06-18.6,19.55-30.49,26.32"/><path class="cls-1" d="M77.92,193.23c-5.71-2.81-11.56-5.35-16.87-8.91a77.39,77.39,0,0,1-10.33-8c-1.38-1.32-1.17-2.14.1-3.28,1.62-1.47,3.1-3.09,4.66-4.63s1.67-3.07.28-4.59-3.06-1.35-4.54.09c-1.69,1.66-3.47,3.25-5,5.05-1.23,1.44-2,.93-3-.18a80.5,80.5,0,0,1-13-19.07,88.25,88.25,0,0,1-9.26-34.2c-.08-2.29.77-2.85,2.84-2.7s4.19,0,6.29,0,3.44-1,3.46-3-1.37-3-3.42-3c-2.28,0-4.56-.1-6.84,0-1.83.1-2.36-.62-2.3-2.38A80.92,80.92,0,0,1,25.8,80.27a93.91,93.91,0,0,1,15-26.77c3.53-4.5,3.58-4.61,7.51-.68,1,1,2,2.09,3.12,3.08,1.44,1.33,3,1.38,4.34,0a2.9,2.9,0,0,0-.06-4.38c-1.63-1.71-3.27-3.44-5-5-1.29-1.16-1.12-2,.07-3.07A78.64,78.64,0,0,1,67.12,31.74,91.44,91.44,0,0,1,97.73,21.52c2.24-.34,4.51-.42,6.77-.64,1.42-.14,2,.49,1.91,1.9q-.1,3.15,0,6.29c.11,3.06,1.2,4.43,3.34,4.4s3.19-1.38,3.2-4.42c0-2,.09-4,0-6-.09-1.69.56-2.28,2.22-2.17a90,90,0,0,1,17.94,3A92.3,92.3,0,0,1,169,43.28c1.15,1,1.34,1.68.11,2.77-1.71,1.51-3.29,3.16-4.85,4.83-1.39,1.49-2.43,3.19-.61,5s3.44,1,4.95-.59,3.28-3.17,4.81-4.86c1.09-1.2,1.9-1.07,2.86.1A104.38,104.38,0,0,1,187,65.6,93.17,93.17,0,0,1,198.27,99c.25,1.88.07,3.8.55,5.69.36,1.4-.21,2.22-1.87,2.15-2.37-.09-4.74,0-7.12,0s-4.22,1.31-4,3.09c.3,2.08,1.6,3.1,3.84,3s4.75,0,7.11,0c1.52,0,2.18.45,2.06,2a92.53,92.53,0,0,1-16.13,46c-1.9,2.77-4.13,5.31-6.18,8-1.12,1.44-2.11,1.68-3.45.13-1.55-1.78-3.3-3.39-5-5-1.35-1.31-2.88-1.69-4.32-.23a3,3,0,0,0-.12,4.43c1.76,2,3.68,3.8,5.56,5.66.71.7,1.32,1.3.22,2.18-5,3.94-9.63,8.32-15.55,10.91C148.21,175.14,137.54,170.44,126,167c-8.88-2.64-18.09-4.07-26.74-7.54a31.64,31.64,0,0,1-6.92-3.78,11.34,11.34,0,0,1-4.94-7.83c1.81-5.59,5.84-9.22,11-11.52,8.89-4,18.07-4,27.11-.59,7.29,2.75,12.58,7.55,14,15.7.59,3.25,1.54,3.87,4.87,3.91,1.55,0,3.1.07,4.64,0,2.67-.17,3.57-1.06,3.71-3.71.07-1.45.05-2.91,0-4.36,2-4.83.33-9.35-1.49-13.68-4.08-9.7-11.88-15.39-21.44-19a28.07,28.07,0,0,0-7.37-2c-2.07-.17-2.89-1.14-2.51-3.17.19-1.23,1.26-1.74,2.08-2.41q12.51-10.14,25-20.33a23.78,23.78,0,0,0,2.89-2.5c1.37-1.54,1.67-3.22.39-5a3.53,3.53,0,0,0-5.09-.83,65.7,65.7,0,0,0-6.68,5.2q-7.8,6.42-15.68,12.74c-.82.66-1.6,1.56-2.87,1.28-1-3.9-1.83-4.61-5.71-4.64-2.07,0-4.13,0-6.2,0-1.28-.4-1.75-1.55-2.32-2.57-8-14.2-16.24-28.31-24.32-42.49a22,22,0,0,0-2.11-3.19c-1.23-1.47-2.7-2.17-4.59-1.24s-2.32,2.65-1.89,4.62A8.82,8.82,0,0,0,74,50.64c9.93,17,19.51,34.21,29.44,51.22a12.94,12.94,0,0,1,1.22,3.31c0,2.19.67,4.7-.19,6.47s-3.74,1.21-5.68,1.84c-12.18,3.94-21.65,10.81-25.59,23.64a32,32,0,0,0-.79,14.07c0,14,7,23.27,19.67,28.59a105.31,105.31,0,0,0,14,4.67c1.1.29,2.73.2,2.64,2.11-1.82,2.77-1.46,5.9-1.5,9-.06,3.51-.74,4.31-4.18,4-6.66-.66-13.29-1.6-19.62-4a6.68,6.68,0,0,0-5.44-2.29"/><path class="cls-1" d="M140.21,202c-1.73,8.55-7.82,13-15.46,15.23-10.83,3.21-21.43,2.34-31.21-3.79a18.45,18.45,0,0,1-8.49-10.91c1.08-.91,2.25-.45,3.39-.2A96.18,96.18,0,0,0,136,201.06a6.86,6.86,0,0,1,3.2-.51c.83.17.77.92,1,1.49"/><path class="cls-5" d="M104.61,105.17q-14-24.24-27.91-48.49c-1.22-2.12-2.47-4.24-3.67-6.38-1.79-3.18-1.46-5.8.88-7.22,2.55-1.56,5-.68,6.91,2.63q11.46,19.86,22.84,39.77Q105.84,89.26,108,93c-2.43,1-3.42,2.75-3.33,5.33.07,2.27-.06,4.54-.09,6.8"/><path class="cls-6" d="M140.21,202l-.45-1.08a5.29,5.29,0,0,1-2.31-2.5c-.79-1.39-2.17-2.09-3.47-2.88-3.11-2.83-7.1-3.92-10.91-5.28a56.91,56.91,0,0,0-10.79-2.66c-1.24-.48-2.64-.54-3.71-1.45-4.38-1.43-8.78-2.83-13.14-4.31-7.77-2.63-14.65-6.66-19.22-13.66-3.33-5.11-5-10.8-3.85-17,2.55,12.05,11.12,18.28,21.77,22.49,8.16,3.24,16.81,4.74,25.23,7a56.74,56.74,0,0,1,12.52,4.64c7.11,3.88,9.44,8.6,8.33,16.69"/><path class="cls-6" d="M152.71,147.24c2.62,5,.55,8.85-4.74,8.85h-4.36c-3.07,0-4.62-.93-4.79-4-.51-9-10.38-15.44-17.56-17s-14.32-1.44-21.33,1.22a22.2,22.2,0,0,0-11.16,9.5c-.42.68-.6,1.54-1.41,1.94-1.06-8.08,2.72-13.59,9.33-17.63,10.47-6.39,27.31-4.94,36.35,3.17a16.47,16.47,0,0,1,5.59,10.34c.48,3.56,1.8,4.83,5.37,4.79,2.93,0,6.05.82,8.71-1.27"/><path class="cls-4" d="M108.57,186.19a4.56,4.56,0,0,1,3.82,1.11c1.26.52,1.25,1.68,1.31,2.75.1,1.63,0,3.26,0,4.9.07,2.76.48,3.25,3.21,3a97.39,97.39,0,0,0,13.66-2.3c1.19-.29,2.42-.93,3.67-.13,2.06,0,3,1.51,3.91,2.93.56.82,1.05,1.69,1.56,2.54-5,1.15-9.94,2.7-15.06,3.48a112,112,0,0,1-25.49.51c-4.81-.36-9.42-1.68-14.16-2.38-1.12-2.22-.72-4.8-1.69-7,.88-1,1.71,0,2.47.16A109.25,109.25,0,0,0,104,198.81c1.94.14,2.59-.59,2.45-2.48a49.79,49.79,0,0,1,0-5.73c.08-1.74.38-3.45,2.15-4.41"/><path class="cls-5" d="M119.94,97.66l23.62-18.94c1.37-1.1,2.78-2.08,4.68-1.64a4.29,4.29,0,0,1,3.42,3.16A4.48,4.48,0,0,1,150,85.12c-2.58,2.16-5.2,4.27-7.82,6.38l-22.3,18a49.2,49.2,0,0,1,0-11.82"/><path class="cls-1" d="M134.29,195.49a91.67,91.67,0,0,1-17.75,3.25c-3.57.27-3.5.09-3.62-3.4-.09-2.68.58-5.42-.53-8,3.47-.42,6.59,1.12,9.78,2a45.89,45.89,0,0,1,10.48,4.3c.79.45,1.66.8,1.64,1.92"/></g></g></svg>